grf
version=1
nRows=12
nColumns=37
inDegrees=no
endheader
time	ground_force_1_vx	ground_force_1_vy	ground_force_1_vz	ground_force_1_px	ground_force_1_py	ground_force_1_pz	ground_moment_1_mx	ground_moment_1_my	ground_moment_1_mz	ground_force_2_vx	ground_force_2_vy	ground_force_2_vz	ground_force_2_px	ground_force_2_py	ground_force_2_pz	ground_moment_2_mx	ground_moment_2_my	ground_moment_2_mz	ground_force_3_vx	ground_force_3_vy	ground_force_3_vz	ground_force_3_px	ground_force_3_py	ground_force_3_pz	ground_moment_3_mx	ground_moment_3_my	ground_moment_3_mz	ground_force_4_vx	ground_force_4_vy	ground_force_4_vz	ground_force_4_px	ground_force_4_py	ground_force_4_pz	ground_moment_4_mx	ground_moment_4_my	ground_moment_4_mz
      0.00000000	      0.00000000	     -0.00000000	      0.00000000	      0.00000000	      0.00000000	      0.00000000	      0.00000000	      0.00000000	      0.00000000	      1.75826526	     67.67589569	   -430.17315674	   -388.81687786	  -1097.93573641	      0.00000000	      0.00000000	      0.00000000	   1673.18510205	     -2.01447524	    -42.48273450	   -397.43637085	   -348.66338082	   -613.11933597	      0.00000000	      0.00000000	     -0.00000000	   -474.80220696	    -35.31017162	     16.19453739	     76.35501862	    600.54122683	   -564.45220207	      0.00000000	      0.00000000	      0.00000000	    100.83702361
      0.01000000	      0.00000000	     -0.00000000	      0.00000000	      0.00000000	      0.00000000	      0.00000000	      0.00000000	      0.00000000	      0.00000000	      1.15973663	     66.05745697	   -427.74774170	   -388.59897557	  -1098.30212512	      0.00000000	      0.00000000	      0.00000000	   1842.08980785	     -1.31780267	    -42.28047932	   -397.93157959	   -352.16010788	   -613.34105642	      0.00000000	      0.00000000	     -0.00000000	   -424.84002076	    -35.65527204	     16.02755668	     75.60636902	    604.57810738	   -561.28695989	      0.00000000	      0.00000000	      0.00000000	     36.12567482
      0.02000000	      0.00000000	     -0.00000000	      0.00000000	      0.00000000	      0.00000000	      0.00000000	      0.00000000	      0.00000000	      0.00000000	      0.25478247	     64.24945831	   -423.86392212	   -388.09450411	  -1099.19081654	      0.00000000	      0.00000000	      0.00000000	   1741.00251232	     -1.29221881	    -43.74574650	   -388.50488281	   -354.58269695	   -615.16142891	      0.00000000	      0.00000000	      0.00000000	     89.19366699	    -35.36177303	     16.16912579	     75.35398102	    605.47474187	   -564.53935152	      0.00000000	      0.00000000	      0.00000000	     58.29158439
      0.03000000	      0.00000000	     -0.00000000	      0.00000000	      0.00000000	      0.00000000	      0.00000000	      0.00000000	      0.00000000	      0.00000000	     -0.05117425	     61.72902679	   -419.57775879	   -387.56283478	  -1097.77663818	      0.00000000	      0.00000000	      0.00000000	   1791.39487307	     -0.08871483	    -46.26847076	   -374.34075928	   -357.05669360	   -614.37554650	      0.00000000	      0.00000000	      0.00000000	    265.85483150	    -35.15717938	     16.07885668	     75.25420380	    607.84628797	   -565.13428446	      0.00000000	      0.00000000	      0.00000000	    124.92461875
      0.04000000	      0.00000000	     -0.00000000	      0.00000000	      0.00000000	      0.00000000	      0.00000000	      0.00000000	      0.00000000	      0.00000000	     -0.14026827	     60.01017761	   -418.26651001	   -387.26916609	  -1098.19191300	      0.00000000	      0.00000000	      0.00000000	   1870.99639445	      1.19129041	    -48.67788325	   -360.92291260	   -359.88938833	   -614.97672729	      0.00000000	      0.00000000	      0.00000000	    368.56018600	    -35.74578335	     16.16846206	     74.85250092	    606.63098030	   -565.42470913	      0.00000000	      0.00000000	      0.00000000	     89.40544198
      0.05000000	      0.00000000	     -0.00000000	      0.00000000	      0.00000000	      0.00000000	      0.00000000	      0.00000000	      0.00000000	      0.00000000	     -0.22907048	     58.96637344	   -415.33959961	   -387.61941441	  -1097.81234471	      0.00000000	      0.00000000	      0.00000000	   1927.37595044	      3.19328253	    -49.90175657	   -353.34143066	   -362.93644614	   -614.82241494	      0.00000000	      0.00000000	      0.00000000	    725.58019229	    -35.20778516	     16.00187419	     75.90492249	    603.64248659	   -563.22861709	      0.00000000	      0.00000000	      0.00000000	      2.39385622
      0.06000000	      0.00000000	     -0.00000000	      0.00000000	      0.00000000	      0.00000000	      0.00000000	      0.00000000	      0.00000000	      0.00000000	     -0.72627246	     57.87078857	   -411.75796509	   -387.78682830	  -1097.10192503	      0.00000000	      0.00000000	      0.00000000	   1751.65918040	      5.47413533	    -49.90175677	   -347.70239258	   -366.27400491	   -616.91548084	      0.00000000	      0.00000000	      0.00000000	    830.26613640	    -35.27178813	     16.21983455	     75.85500336	    604.33410447	   -560.81819152	      0.00000000	      0.00000000	     -0.00000000	    -37.53212186
      0.07000000	      0.00000000	     -0.00000000	      0.00000000	      0.00000000	      0.00000000	      0.00000000	      0.00000000	      0.00000000	      0.00000000	     -0.90462953	     57.54069901	   -408.67880249	   -387.34606287	  -1096.22580602	      0.00000000	      0.00000000	      0.00000000	   1935.24556432	      7.13433644	    -49.41039338	   -348.20251465	   -370.23423572	   -616.59644922	      0.00000000	      0.00000000	      0.00000000	    770.54161403	    -35.23412181	     16.28450702	     76.26213074	    603.47860589	   -565.41618023	      0.00000000	      0.00000000	      0.00000000	    -58.32513695
      0.08000000	      0.00000000	     -0.00000000	      0.00000000	      0.00000000	      0.00000000	      0.00000000	      0.00000000	      0.00000000	      0.00000000	     -0.81338495	     56.63713074	   -407.93063354	   -387.12212870	  -1097.16456455	      0.00000000	      0.00000000	      0.00000000	   1955.32409722	      8.64223534	    -48.41266326	   -349.95446777	   -373.17672184	   -617.38852176	      0.00000000	      0.00000000	      0.00000000	    827.02395028	    -35.13227700	     16.45192453	     75.05491638	    610.65680746	   -564.18092657	      0.00000000	      0.00000000	     -0.00000000	    -90.40094178
      0.09000000	      0.00000000	     -0.00000000	      0.00000000	      0.00000000	      0.00000000	      0.00000000	      0.00000000	      0.00000000	      0.00000000	     -1.45464551	     55.61737061	   -405.97070312	   -387.41309650	  -1097.10692928	      0.00000000	      0.00000000	      0.00000000	   1819.29307575	     10.23880355	    -47.21520323	   -350.59686279	   -378.76993894	   -619.45177099	      0.00000000	      0.00000000	      0.00000000	    808.54296935	    -35.33609632	     16.01459812	     75.50325775	    608.65480454	   -565.08878471	      0.00000000	      0.00000000	      0.00000000	     57.46654891
      0.10000000	      0.00000000	     -0.00000000	      0.00000000	      0.00000000	      0.00000000	      0.00000000	      0.00000000	      0.00000000	      0.00000000	     -1.79944170	     55.42679214	   -402.01638794	   -387.17994260	  -1095.95289181	      0.00000000	      0.00000000	      0.00000000	   1858.48832887	     12.16567300	    -46.55777847	   -353.84609985	   -382.79398727	   -620.27704575	      0.00000000	      0.00000000	      0.00000000	    656.00467656	    -35.33609634	     15.79424023	     77.22216797	    599.23071965	   -555.33655853	      0.00000000	      0.00000000	     -0.00000000	   -130.77129385
      0.11000000	      0.00000000	     -0.00000000	      0.00000000	      0.00000000	      0.00000000	      0.00000000	      0.00000000	      0.00000000	      0.00000000	     -2.19346762	     54.86421585	   -397.77770996	   -386.83800472	  -1095.57640548	      0.00000000	      0.00000000	      0.00000000	   1788.87500742	     14.20595617	    -46.95059328	   -357.59149170	   -386.71920606	   -620.53538077	      0.00000000	      0.00000000	      0.00000000	    610.11172900	    -35.42555099	     15.76562142	     76.60370636	    600.32905251	   -563.91393356	      0.00000000	      0.00000000	      0.00000000	    257.86179492
